P3
#SOME COMMENT 
# AND THIS ONE
#LAST ONE
5 3
255
0 0 0 123 45 67 0 255 0 0 0 255 255 140 0
255 255 0 255 0 255 34 139 34 192 192 192 70 130 180
128 128 128 64 64 64 128 0 128 255 105 180 0 255 255
