P3
#SOME COMMENT 
# AND THIS ONE
#LAST ONE
5 3
255
0 0 0 70 70 70 149 149 149 29 29 29 158 158 158
225 225 225 105 105 105 95 95 95 192 192 192 117 117 117
127 127 127 63 63 63 52 52 52 158 158 158 178 178 178
